<?xml version="1.0" encoding="UTF-8" standalone="no"?>
<!-- Created with Inkscape (http://www.inkscape.org/) -->

<svg
   xmlns:dc="http://purl.org/dc/elements/1.1/"
   xmlns:cc="http://creativecommons.org/ns#"
   xmlns:rdf="http://www.w3.org/1999/02/22-rdf-syntax-ns#"
   xmlns:svg="http://www.w3.org/2000/svg"
   xmlns="http://www.w3.org/2000/svg"
   xmlns:xlink="http://www.w3.org/1999/xlink"
   xmlns:sodipodi="http://sodipodi.sourceforge.net/DTD/sodipodi-0.dtd"
   xmlns:inkscape="http://www.inkscape.org/namespaces/inkscape"
   width="144"
   height="144"
   id="svg2"
   version="1.1"
   inkscape:version="0.48.0 r9654"
   sodipodi:docname="Connect.svg"
   style="display:inline">
  <defs
     id="defs4">
    <linearGradient
       id="linearGradient3904">
      <stop
         style="stop-color:#a3a3a3;stop-opacity:1;"
         offset="0"
         id="stop3906" />
      <stop
         style="stop-color:#787878;stop-opacity:1;"
         offset="1"
         id="stop3908" />
    </linearGradient>
    <linearGradient
       inkscape:collect="always"
       xlink:href="#linearGradient3904"
       id="linearGradient3910"
       x1="72.5"
       y1="24.104776"
       x2="72.5"
       y2="120.06394"
       gradientUnits="userSpaceOnUse" />
    <linearGradient
       inkscape:collect="always"
       xlink:href="#linearGradient3904-2"
       id="linearGradient3910-2"
       x1="32"
       y1="72.000015"
       x2="112"
       y2="72.000015"
       gradientUnits="userSpaceOnUse" />
    <linearGradient
       id="linearGradient3904-2">
      <stop
         style="stop-color:#a3a3a3;stop-opacity:1;"
         offset="0"
         id="stop3906-8" />
      <stop
         style="stop-color:#787878;stop-opacity:1;"
         offset="1"
         id="stop3908-6" />
    </linearGradient>
    <filter
       inkscape:collect="always"
       id="filter3950"
       x="-0.13200007"
       width="1.2640002"
       y="-0.10999995"
       height="1.2199999"
       color-interpolation-filters="sRGB">
      <feGaussianBlur
         inkscape:collect="always"
         stdDeviation="4.4000019"
         id="feGaussianBlur3952" />
    </filter>
    <linearGradient
       inkscape:collect="always"
       xlink:href="#linearGradient3904-1"
       id="linearGradient3910-9"
       x1="32"
       y1="72.000015"
       x2="112"
       y2="72.000015"
       gradientUnits="userSpaceOnUse" />
    <linearGradient
       id="linearGradient3904-1">
      <stop
         style="stop-color:#a3a3a3;stop-opacity:1;"
         offset="0"
         id="stop3906-1" />
      <stop
         style="stop-color:#787878;stop-opacity:1;"
         offset="1"
         id="stop3908-7" />
    </linearGradient>
    <filter
       inkscape:collect="always"
       id="filter4006"
       color-interpolation-filters="sRGB">
      <feGaussianBlur
         inkscape:collect="always"
         stdDeviation="0.8800004"
         id="feGaussianBlur4008" />
    </filter>
    <linearGradient
       inkscape:collect="always"
       xlink:href="#linearGradient3904-25"
       id="linearGradient3910-3"
       x1="32"
       y1="72.000015"
       x2="112"
       y2="72.000015"
       gradientUnits="userSpaceOnUse" />
    <linearGradient
       id="linearGradient3904-25">
      <stop
         style="stop-color:#a3a3a3;stop-opacity:1;"
         offset="0"
         id="stop3906-7" />
      <stop
         style="stop-color:#787878;stop-opacity:1;"
         offset="1"
         id="stop3908-8" />
    </linearGradient>
    <linearGradient
       gradientTransform="translate(-47.5,-39.500014)"
       y2="72.000015"
       x2="112"
       y1="72.000015"
       x1="32"
       gradientUnits="userSpaceOnUse"
       id="linearGradient4111"
       xlink:href="#linearGradient3904-25"
       inkscape:collect="always" />
    <linearGradient
       inkscape:collect="always"
       xlink:href="#linearGradient3904-25"
       id="linearGradient4136"
       gradientUnits="userSpaceOnUse"
       gradientTransform="translate(-1.7543471e-7,-1.4145888e-5)"
       x1="32"
       y1="72.000015"
       x2="112"
       y2="72.000015" />
    <clipPath
       clipPathUnits="userSpaceOnUse"
       id="clipPath4138">
      <path
         style="fill:url(#linearGradient4142);fill-opacity:1"
         d="m 40,23.999986 c -1.260328,0 -2,0.73967 -2,2 l 0,63.625 c -3.581433,2.07624 -6,5.93733 -6,10.375 0,6.627424 5.372583,12.000004 12,12.000004 6.627417,0 12,-5.37258 12,-12.000004 0,-4.43767 -2.418567,-8.29876 -6,-10.375 l 0,-35.6875 c 11.370276,13.735707 21.894055,28.267031 33.40625,41.84375 5.642878,7.127384 12.632163,15.746494 17.59375,22.218754 0.50725,0.6619 1.60761,2.01 3,2 1.26033,0 2,-0.7397 2,-2 l 0,-63.625004 c 3.58143,-2.07624 6,-5.93733 6,-10.375 0,-6.627417 -5.37258,-12 -12,-12 -6.627417,0 -12,5.372583 -12,12 0,4.43767 2.418567,8.29876 6,10.375 l 0,35.5625 C 82.692282,76.010449 71.769167,61.682053 60.40625,47.843736 54.631702,40.596834 48.701376,33.213786 43,25.999986 c -0.507247,-0.66194 -1.607609,-2.007 -3,-2 z"
         id="path4140"
         inkscape:connector-curvature="0" />
    </clipPath>
    <linearGradient
       inkscape:collect="always"
       xlink:href="#linearGradient3904-25"
       id="linearGradient4142"
       gradientUnits="userSpaceOnUse"
       gradientTransform="translate(-1.7543471e-7,-1.4145888e-5)"
       x1="32"
       y1="72.000015"
       x2="112"
       y2="72.000015" />
    <linearGradient
       inkscape:collect="always"
       xlink:href="#linearGradient3904-3"
       id="linearGradient3910-4"
       x1="72.5"
       y1="24.104776"
       x2="72.5"
       y2="120.06394"
       gradientUnits="userSpaceOnUse" />
    <linearGradient
       id="linearGradient3904-3">
      <stop
         style="stop-color:#a3a3a3;stop-opacity:1;"
         offset="0"
         id="stop3906-5" />
      <stop
         style="stop-color:#787878;stop-opacity:1;"
         offset="1"
         id="stop3908-84" />
    </linearGradient>
    <linearGradient
       gradientTransform="translate(-32,-23.999973)"
       y2="120.06394"
       x2="72.5"
       y1="24.104776"
       x1="72.5"
       gradientUnits="userSpaceOnUse"
       id="linearGradient3906"
       xlink:href="#linearGradient3904-3"
       inkscape:collect="always" />
    <filter
       inkscape:collect="always"
       id="filter3944"
       x="-0.13200006"
       width="1.2640001"
       y="-0.10999996"
       height="1.2199999">
      <feGaussianBlur
         inkscape:collect="always"
         stdDeviation="4.4000021"
         id="feGaussianBlur3946" />
    </filter>
    <linearGradient
       inkscape:collect="always"
       xlink:href="#linearGradient3904-22"
       id="linearGradient3910-8"
       x1="72.5"
       y1="24.104776"
       x2="72.5"
       y2="120.06394"
       gradientUnits="userSpaceOnUse" />
    <linearGradient
       id="linearGradient3904-22">
      <stop
         style="stop-color:#a3a3a3;stop-opacity:1;"
         offset="0"
         id="stop3906-14" />
      <stop
         style="stop-color:#787878;stop-opacity:1;"
         offset="1"
         id="stop3908-66" />
    </linearGradient>
    <filter
       inkscape:collect="always"
       id="filter3982">
      <feGaussianBlur
         inkscape:collect="always"
         stdDeviation="0.88000043"
         id="feGaussianBlur3984" />
    </filter>
    <linearGradient
       inkscape:collect="always"
       xlink:href="#linearGradient3904-7"
       id="linearGradient3910-5"
       x1="72.5"
       y1="24.104776"
       x2="72.5"
       y2="120.06394"
       gradientUnits="userSpaceOnUse" />
    <linearGradient
       id="linearGradient3904-7">
      <stop
         style="stop-color:#a3a3a3;stop-opacity:1;"
         offset="0"
         id="stop3906-88" />
      <stop
         style="stop-color:#787878;stop-opacity:1;"
         offset="1"
         id="stop3908-1" />
    </linearGradient>
    <linearGradient
       gradientTransform="translate(0,-3.0000298e-6)"
       y2="120.06394"
       x2="72.5"
       y1="24.104776"
       x1="72.5"
       gradientUnits="userSpaceOnUse"
       id="linearGradient3906-3"
       xlink:href="#linearGradient3904-7"
       inkscape:collect="always" />
    <clipPath
       clipPathUnits="userSpaceOnUse"
       id="clipPath4003">
      <path
         style="fill:url(#linearGradient4007);fill-opacity:1;display:inline"
         d="m 40,23.999997 c -1.260328,0 -2,0.73967 -2,2 l 0,63.625 c -3.581433,2.07624 -6,5.93733 -6,10.375 C 32,106.62742 37.372583,112 44,112 c 6.627417,0 12,-5.37258 12,-12.000003 0,-4.43767 -2.418567,-8.29876 -6,-10.375 l 0,-35.6875 C 61.370276,67.673204 71.894055,82.204528 83.40625,95.781247 89.049128,102.90863 96.038413,111.52774 101,118 c 0.50725,0.6619 1.60761,2.01 3,2 1.26033,0 2,-0.7397 2,-2 l 0,-63.625003 c 3.58143,-2.07624 6,-5.93733 6,-10.375 0,-6.627417 -5.37258,-12 -12,-12 -6.627417,0 -12,5.372583 -12,12 0,4.43767 2.418567,8.29876 6,10.375 l 0,35.5625 C 82.692282,76.01046 71.769167,61.682064 60.40625,47.843747 54.631702,40.596845 48.701376,33.213797 43,25.999997 c -0.507247,-0.66194 -1.607609,-2.007 -3,-2 z"
         id="path4005"
         inkscape:connector-curvature="0" />
    </clipPath>
    <linearGradient
       inkscape:collect="always"
       xlink:href="#linearGradient3904-7"
       id="linearGradient4007"
       gradientUnits="userSpaceOnUse"
       gradientTransform="translate(0,-3.0000298e-6)"
       x1="72.5"
       y1="24.104776"
       x2="72.5"
       y2="120.06394" />
  </defs>
  <sodipodi:namedview
     id="base"
     pagecolor="#ffffff"
     bordercolor="#666666"
     borderopacity="1.0"
     inkscape:pageopacity="0.0"
     inkscape:pageshadow="2"
     inkscape:zoom="2.8284271"
     inkscape:cx="67.155626"
     inkscape:cy="77.000844"
     inkscape:document-units="px"
     inkscape:current-layer="layer4"
     showgrid="false"
     borderlayer="false"
     inkscape:snap-bbox="false"
     inkscape:snap-nodes="true"
     inkscape:object-nodes="false"
     inkscape:snap-smooth-nodes="false"
     inkscape:snap-midpoints="false"
     inkscape:window-width="928"
     inkscape:window-height="641"
     inkscape:window-x="280"
     inkscape:window-y="42"
     inkscape:window-maximized="0" />
  <metadata
     id="metadata7">
    <rdf:RDF>
      <cc:Work
         rdf:about="">
        <dc:format>image/svg+xml</dc:format>
        <dc:type
           rdf:resource="http://purl.org/dc/dcmitype/StillImage" />
        <dc:title />
      </cc:Work>
    </rdf:RDF>
  </metadata>
  <g
     inkscape:groupmode="layer"
     id="layer2"
     inkscape:label="Glow"
     style="display:inline"
     sodipodi:insensitive="true">
    <path
       style="fill:none;stroke:#ffffff;stroke-opacity:1;display:inline;filter:url(#filter3944);stroke-width:2;stroke-miterlimit:4;stroke-dasharray:none"
       d="m 40,23.999997 c -1.260328,0 -2,0.73967 -2,2 l 0,63.625 c -3.581433,2.07624 -6,5.93733 -6,10.375 C 32,106.62742 37.372583,112 44,112 c 6.627417,0 12,-5.37258 12,-12.000003 0,-4.43767 -2.418567,-8.29876 -6,-10.375 l 0,-35.6875 C 61.370276,67.673204 71.894055,82.204528 83.40625,95.781247 89.049128,102.90863 96.038413,111.52774 101,118 c 0.50725,0.6619 1.60761,2.01 3,2 1.26033,0 2,-0.7397 2,-2 l 0,-63.625003 c 3.58143,-2.07624 6,-5.93733 6,-10.375 0,-6.627417 -5.37258,-12 -12,-12 -6.627417,0 -12,5.372583 -12,12 0,4.43767 2.418567,8.29876 6,10.375 l 0,35.5625 C 82.692282,76.01046 71.769167,61.682064 60.40625,47.843747 54.631702,40.596845 48.701376,33.213797 43,25.999997 c -0.507247,-0.66194 -1.607609,-2.007 -3,-2 z"
       id="path2985-1-1"
       inkscape:connector-curvature="0" />
  </g>
  <g
     inkscape:label="Layer 1"
     inkscape:groupmode="layer"
     id="layer1"
     transform="translate(0,-908.36218)"
     sodipodi:insensitive="true">
    <path
       style="fill:url(#linearGradient3910);fill-opacity:1"
       d="m 40,24 c -1.260328,0 -2,0.73967 -2,2 l 0,63.625 c -3.581433,2.07624 -6,5.93733 -6,10.375 0,6.62742 5.372583,12 12,12 6.627417,0 12,-5.37258 12,-12 0,-4.43767 -2.418567,-8.29876 -6,-10.375 L 50,53.9375 C 61.370276,67.673207 71.894055,82.204531 83.40625,95.78125 89.049128,102.90863 96.038413,111.52774 101,118 c 0.50725,0.6619 1.60761,2.01 3,2 1.26033,0 2,-0.7397 2,-2 l 0,-63.625 c 3.58143,-2.07624 6,-5.93733 6,-10.375 0,-6.627417 -5.37258,-12 -12,-12 -6.627417,0 -12,5.372583 -12,12 0,4.43767 2.418567,8.29876 6,10.375 l 0,35.5625 C 82.692282,76.010463 71.769167,61.682067 60.40625,47.84375 54.631702,40.596848 48.701376,33.2138 43,26 42.492753,25.33806 41.392391,23.993 40,24 z"
       transform="translate(0,908.36218)"
       id="path2985-1"
       inkscape:connector-curvature="0" />
  </g>
  <g
     inkscape:groupmode="layer"
     id="layer4"
     inkscape:label="sunken"
     style="display:inline"
     sodipodi:insensitive="true">
    <path
       style="fill:none;stroke:#000000;stroke-opacity:1;display:inline;filter:url(#filter3982)"
       d="m 40,23.999997 c -1.260328,0 -2,0.73967 -2,2 l 0,63.625 c -3.581433,2.07624 -6,5.93733 -6,10.375 C 32,106.62742 37.372583,112 44,112 c 6.627417,0 12,-5.37258 12,-12.000003 0,-4.43767 -2.418567,-8.29876 -6,-10.375 l 0,-35.6875 C 61.370276,67.673204 71.894055,82.204528 83.40625,95.781247 89.049128,102.90863 96.038413,111.52774 101,118 c 0.50725,0.6619 1.60761,2.01 3,2 1.26033,0 2,-0.7397 2,-2 l 0,-63.625003 c 3.58143,-2.07624 6,-5.93733 6,-10.375 0,-6.627417 -5.37258,-12 -12,-12 -6.627417,0 -12,5.372583 -12,12 0,4.43767 2.418567,8.29876 6,10.375 l 0,35.5625 C 82.692282,76.01046 71.769167,61.682064 60.40625,47.843747 54.631702,40.596845 48.701376,33.213797 43,25.999997 c -0.507247,-0.66194 -1.607609,-2.007 -3,-2 z"
       id="path2985-1-3"
       inkscape:connector-curvature="0"
       clip-path="url(#clipPath4003)" />
  </g>
</svg>
